<?xml version="1.0" encoding="UTF-8" standalone="no"?>
<svg
   xmlns:dc="http://purl.org/dc/elements/1.1/"
   xmlns:cc="http://creativecommons.org/ns#"
   xmlns:rdf="http://www.w3.org/1999/02/22-rdf-syntax-ns#"
   xmlns:svg="http://www.w3.org/2000/svg"
   xmlns="http://www.w3.org/2000/svg"
   xmlns:sodipodi="http://sodipodi.sourceforge.net/DTD/sodipodi-0.dtd"
   xmlns:inkscape="http://www.inkscape.org/namespaces/inkscape"
   sodipodi:docname="tipoA-color.svg"
   inkscape:version="1.0 (4035a4f, 2020-05-01)"
   inkscape:export-ydpi="96"
   inkscape:export-xdpi="96"
   inkscape:export-filename="/Users/eduardoserranorosete/Desktop/tipoA-blanco.png"
   id="svg961"
   version="1.1"
   viewBox="0 0 507.99999 508.00001"
   height="1920"
   width="1920">
  <defs
     id="defs955" />
  <sodipodi:namedview
     inkscape:window-maximized="1"
     inkscape:window-y="23"
     inkscape:window-x="0"
     inkscape:window-height="790"
     inkscape:window-width="1440"
     inkscape:pagecheckerboard="true"
     units="px"
     showgrid="false"
     inkscape:document-rotation="0"
     inkscape:current-layer="layer1"
     inkscape:document-units="px"
     inkscape:cy="937.03823"
     inkscape:cx="727.21721"
     inkscape:zoom="0.23242669"
     inkscape:pageshadow="2"
     inkscape:pageopacity="0.0"
     borderopacity="1.0"
     bordercolor="#666666"
     pagecolor="#ffffff"
     id="base" />
  <metadata
     id="metadata958">
    <rdf:RDF>
      <cc:Work
         rdf:about="">
        <dc:format>image/svg+xml</dc:format>
        <dc:type
           rdf:resource="http://purl.org/dc/dcmitype/StillImage" />
        <dc:title></dc:title>
      </cc:Work>
    </rdf:RDF>
  </metadata>
  <g
     id="layer1"
     inkscape:groupmode="layer"
     inkscape:label="Capa 1">
    <path
       inkscape:export-ydpi="96"
       inkscape:export-xdpi="96"
       inkscape:export-filename="/Users/eduardoserranorosete/Desktop/concept1.1-color.png"
       id="path1057-8-2-4-7"
       style="color:#000000;font-style:normal;font-variant:normal;font-weight:normal;font-stretch:normal;font-size:medium;line-height:normal;font-family:sans-serif;font-variant-ligatures:normal;font-variant-position:normal;font-variant-caps:normal;font-variant-numeric:normal;font-variant-alternates:normal;font-variant-east-asian:normal;font-feature-settings:normal;font-variation-settings:normal;text-indent:0;text-align:start;text-decoration:none;text-decoration-line:none;text-decoration-style:solid;text-decoration-color:#000000;letter-spacing:normal;word-spacing:normal;text-transform:none;writing-mode:lr-tb;direction:ltr;text-orientation:mixed;dominant-baseline:auto;baseline-shift:baseline;text-anchor:start;white-space:normal;shape-padding:0;shape-margin:0;inline-size:0;clip-rule:nonzero;display:inline;overflow:visible;visibility:visible;opacity:1;isolation:auto;mix-blend-mode:normal;color-interpolation:sRGB;color-interpolation-filters:linearRGB;solid-color:#000000;solid-opacity:1;vector-effect:none;fill:#87a594;fill-opacity:1;fill-rule:nonzero;stroke:none;stroke-width:15.1816;stroke-linecap:round;stroke-linejoin:round;stroke-miterlimit:4;stroke-dasharray:none;stroke-dashoffset:0;stroke-opacity:1;color-rendering:auto;image-rendering:auto;shape-rendering:auto;text-rendering:auto;enable-background:accumulate;stop-color:#000000;stop-opacity:1"
       d="m 255.76867,29.104165 v 0.05756 C 158.5578,28.232208 77.203859,103.11596 70.09467,200.07113 62.985483,297.02585 132.54559,382.96935 228.8521,396.22961 a 7.590781,7.590781 0 0 0 8.55534,-6.47974 7.590781,7.590781 0 0 0 -6.48497,-8.55694 C 142.40524,369.00455 78.707119,290.29366 85.241399,201.1802 91.775689,112.06744 166.27386,43.492631 255.62212,44.346968 c 89.34829,0.85425 162.52727,70.836772 167.35642,160.058632 4.66819,86.2465 -56.09459,161.51601 -140.30196,175.91855 l 0.40109,-42.62155 h 35.55902 c 3.74958,0 6.93639,-2.74 7.50186,-6.44637 l 11.01647,-72.13869 h 11.5152 c 4.19279,0 7.5905,-3.4016 7.589,-7.59432 v -38.40044 c 0,-4.18968 -3.39896,-7.5858 -7.589,-7.58721 h -53.75984 c 6.62512,-7.84372 13.09673,-16.32471 18.21471,-25.86276 8.07949,-15.05793 12.98153,-32.23351 8.18213,-49.20429 -2.37434,-8.39588 -10.70719,-11.58276 -19.41481,-11.86565 -6.71863,-0.2194 -14.68755,2.12137 -23.05315,6.0906 -2.15423,-4.50659 -4.19537,-9.24543 -6.80938,-12.86164 -3.93913,-5.44904 -10.60933,-9.83105 -18.29492,-9.86177 v 0 c -6.70677,-0.0337 -13.38432,3.21663 -17.70019,8.53798 -2.90196,3.57743 -5.16171,8.21666 -7.36932,13.44762 -6.74945,-3.46632 -12.97746,-5.9431 -18.24782,-6.63134 -7.31593,-0.95581 -14.30576,0.38578 -18.26702,6.08388 -3.71522,5.34438 -4.88459,11.94703 -4.9378,19.79651 -0.0522,7.84948 1.38311,16.88763 4.82622,26.20496 4.52422,12.24338 13.13933,24.74431 25.92058,35.13697 l -58.74306,0.98893 c -4.14101,0.0708 -7.46175,3.44577 -7.46344,7.58721 v 38.40044 c 0,4.19475 3.39938,7.59564 7.59422,7.59432 h 11.51696 l 11.00946,72.13869 c 0.56587,3.70901 3.75664,6.4484 7.50886,6.44637 h 50.20685 c 4.19501,0 7.59625,-3.39922 7.59429,-7.59432 0,-4.19166 -3.40201,-7.58916 -7.59429,-7.58725 h -43.68708 l -9.68213,-63.40349 h 96.11978 c 4.19484,0 7.59607,-3.39922 7.59422,-7.59432 0,-4.19307 -3.40145,-7.59085 -7.59422,-7.58882 h -104.95588 -10.4496 v -23.34958 l 77.46015,-1.29785 c 0.0955,0 0.19072,0 0.28591,0 0.0513,0 0.10132,0 0.15184,0 0.0239,0 0.0443,0 0.0681,0 0.0169,0 0.0301,0 0.0469,0 0.0567,0 0.11382,6.9e-4 0.17081,-0.0337 h 0.1482 c 0.009,0 0.0133,-7e-4 0.0205,0 0.0389,0 0.0797,0 0.11846,-0.0335 0.19275,-0.0337 0.384,-0.0638 0.57385,-0.10801 h 0.009 c 0.069,0 0.13742,-0.0337 0.20586,-0.0504 0.0478,0 0.0966,-0.0337 0.14485,-0.0408 0.0239,0 0.0442,4.7e-4 0.0664,-0.0335 0.0478,0 0.0966,-0.0337 0.14476,-0.0442 0.0169,0 0.0372,0 0.0541,-0.0337 0.0514,0 0.10268,-0.0335 0.15352,-0.0504 0.0204,0 0.0425,-0.0336 0.0637,-0.0336 0.0469,0 0.0948,-0.0335 0.14159,-0.0504 0.0204,0 0.0417,-0.0337 0.0629,-0.0337 0.0469,0 0.0929,-0.0372 0.1397,-0.0541 h 0.009 c 0.0495,-0.0337 0.0989,-0.0408 0.14814,-0.0638 0.0823,-0.0372 0.16513,-0.0743 0.24605,-0.11475 0.0514,-0.0337 0.10098,-0.0504 0.15157,-0.0743 0.0133,0 0.0301,-0.0336 0.0443,-0.0336 h 0.009 c 0.38568,-0.2025 0.75331,-0.43546 1.0988,-0.69939 0.0459,-0.0337 0.0898,-0.0672 0.13432,-0.10461 0.29837,-0.23958 0.57817,-0.4992 0.83725,-0.77961 0.0381,-0.0407 0.0761,-0.0806 0.11342,-0.12497 0.009,0 0.0239,-0.0337 0.0346,-0.0372 v 0 c 0.23995,-0.27343 0.45962,-0.56606 0.65761,-0.87215 0.0301,-0.0469 0.0611,-0.0945 0.0904,-0.14174 0.009,0 0.0169,-0.0337 0.0275,-0.0442 0,0 0.009,-0.0337 0.0133,-0.0337 0.0717,-0.11806 0.13935,-0.23631 0.20408,-0.35946 0.0265,-0.0469 0.0522,-0.0979 0.0771,-0.14849 0.009,0 0.0169,-0.0335 0.0239,-0.0443 0.009,0 0.0169,-0.0337 0.0239,-0.0433 0.0239,-0.0504 0.0487,-0.10132 0.0717,-0.1553 v 0 c 0.12046,-0.26324 0.22595,-0.534 0.31563,-0.80936 0.0169,-0.0541 0.0346,-0.108 0.0515,-0.16203 0.38506,-1.28226 0.42402,-2.64316 0.11333,-3.94533 0,0 0,7e-4 -0.009,-0.0335 -0.0346,-0.13504 -0.0699,-0.26669 -0.10959,-0.39967 -0.0169,-0.0541 -0.0301,-0.10801 -0.0487,-0.16196 -0.009,0 -0.009,-0.0337 -0.0169,-0.0469 0,0 -0.009,-0.0337 -0.0133,-0.0372 -0.0425,-0.12498 -0.0884,-0.24976 -0.13776,-0.37506 -0.0205,-0.0504 -0.0408,-0.10121 -0.063,-0.1552 -0.0133,-0.0337 -0.0265,-0.0638 -0.0417,-0.0979 -6.63637,-15.10725 -2.49926,-28.56771 5.14719,-40.85995 7.40722,-11.90788 17.8361,-21.40441 23.7753,-27.17104 8.84866,-5.38184 16.39889,-6.9901 21.25664,-6.83214 4.35359,0.14175 5.47109,1.81519 5.3982,1.22621 3.12872,11.61286 -0.11501,24.5758 -7.04472,37.49146 -7.0095,13.06351 -17.59765,25.62352 -27.10146,35.31316 -4.7136,4.8033 -1.31023,12.90964 5.4193,12.90894 h 63.00748 v 23.21731 H 330.99512 330.63928 311.535 c -4.19085,0 -7.58802,3.39777 -7.589,7.58881 0,4.1928 3.39611,7.59333 7.589,7.59432 h 10.2612 l -9.67516,63.40363 h -36.46782 c -4.12684,0 -7.49762,3.29716 -7.58909,7.42316 l -0.63316,57.25721 a 7.590781,7.590781 0 0 0 -0.19877,2.83078 7.590781,7.590781 0 0 0 8.435,6.64726 c 60.3392,-7.13531 110.77015,-42.85717 138.82812,-92.34526 16.83495,-29.69306 25.61306,-64.34294 23.64267,-100.74525 C 432.88247,106.4647 352.98211,30.04014 255.77133,29.11063 Z m -2.09657,88.056005 c 3.33253,0 3.75159,0.40092 6.04536,3.57399 1.77976,2.46189 3.85935,6.71846 6.50763,12.18157 -3.68493,3.52315 -8.44262,8.18496 -13.4007,14.08253 -3.51191,-5.10432 -7.40084,-9.79226 -11.48384,-14.19082 2.50085,-6.27725 4.69908,-10.52372 6.48495,-12.72566 2.17592,-2.68237 2.785,-2.9341 5.8466,-2.92161 z m -46.61036,15.09778 v 0 c 0.40851,0 0.86927,0.0541 1.38832,0.12147 4.04024,0.52753 10.6884,2.7981 19.30836,8.16806 5.95745,6.14231 11.25915,12.52423 15.48329,19.60685 -6.40439,10.41967 -11.20415,23.32825 -10.24365,37.22451 -14.2345,-9.2627 -22.38785,-21.49251 -26.72294,-33.2235 -2.8012,-7.58048 -3.92425,-14.95538 -3.88433,-20.84483 0.0355,-5.22387 1.27385,-9.31467 1.97962,-10.78801 0.20153,-0.0407 0.96926,-0.33777 2.69133,-0.26659 z M 306.23548,407.176 v 0 c -0.21063,0 -0.48214,0.0611 -0.81291,0.17887 l -6.31576,2.25534 c -0.87206,0.30042 -1.30811,0.79792 -1.30811,1.48953 0,0.33078 0.0913,0.69052 0.27207,1.08143 l 5.86404,12.67537 c 0.39083,0.84178 0.93218,1.26437 1.62385,1.26437 0.21064,0 0.48017,-0.0611 0.81105,-0.18232 l 4.37617,-1.62373 c 0.87212,-0.33082 1.30817,-0.84152 1.30817,-1.53311 0,-0.17887 -0.0459,-0.42154 -0.13606,-0.72222 l -4.24017,-13.53141 c -0.27066,-0.90223 -0.75074,-1.35345 -1.44245,-1.35345 z m -253.912537,2.70522 c -2.405767,0 -3.608782,1.18778 -3.608782,3.56361 v 60.98592 c 0,2.37584 1.203015,3.56354 3.608782,3.56354 h 7.217473 c 2.405765,0 3.608779,-1.1877 3.608779,-3.56354 v -60.98592 c 0,-2.37583 -1.203014,-3.56361 -3.608779,-3.56361 z m 108.799917,0 c -1.80431,0 -2.70699,1.18778 -2.70699,3.56361 v 60.98592 c 0,2.37584 0.90268,3.56354 2.70699,3.56354 h 36.44685 c 2.40585,0 3.60878,-1.1877 3.60878,-3.56354 v -6.40456 c 0,-2.37583 -1.20293,-3.56354 -3.60878,-3.56354 h -24.7189 v -51.01782 c 0,-2.37583 -1.20292,-3.56361 -3.60868,-3.56361 z m 98.33474,0 c -2.40579,0 -3.6088,1.18778 -3.6088,3.56361 v 60.98592 c 0,2.37584 1.20301,3.56354 3.6088,3.56354 h 6.31576 c 2.40576,0 3.60877,-1.1877 3.60877,-3.56354 v -9.83379 l 3.20237,-4.05874 8.43491,14.56927 c 1.11272,1.92454 2.73658,2.8868 4.87158,2.8868 h 8.43501 c 1.68407,0 2.52565,-0.63113 2.52565,-1.89416 0,-0.54145 -0.16469,-1.09768 -0.4954,-1.66938 l -14.70536,-25.35009 13.30659,-16.87011 c 0.51115,-0.66159 0.76739,-1.32315 0.76739,-1.98466 0,-1.23303 -0.76693,-1.84901 -2.30058,-1.84901 h -7.5333 c -1.95464,0 -3.68369,0.962 -5.18723,2.88653 l -11.32163,14.3897 v -32.20828 c 0,-2.37583 -1.20301,-3.56361 -3.60877,-3.56361 z m 160.58366,0 c -2.40576,0 -3.60877,1.18778 -3.60877,3.56361 v 60.98592 c 0,2.37584 1.20301,3.56354 3.60877,3.56354 h 6.31566 c 2.40578,0 3.60888,-1.1877 3.60888,-3.56354 v -31.80017 c 2.04488,-1.68424 4.46437,-2.52574 7.26104,-2.52574 2.79679,0 4.91771,0.64634 6.36119,1.93977 1.44341,1.29271 2.1645,3.11199 2.1645,5.45745 v 26.92869 c 0,2.37584 1.20301,3.56354 3.60878,3.56354 h 6.31585 c 2.40568,0 3.60868,-1.1877 3.60868,-3.56354 v -27.87584 c 0,-5.89411 -1.96996,-10.58541 -5.90934,-14.07404 -3.75896,-3.33775 -8.2249,-5.00748 -13.39726,-5.00748 -3.7289,0 -7.06641,1.03852 -10.01344,3.11329 v -17.14185 c 0,-2.37583 -1.2031,-3.56361 -3.60888,-3.56361 z M 99.325729,427.47339 c -3.81907,0 -7.20251,1.06888 -10.14953,3.20406 0,-1.5337 -1.15716,-2.30057 -3.47269,-2.30057 h -6.31577 c -2.40577,0 -3.60878,1.18777 -3.60878,3.56325 v 42.49062 c 0,2.37584 1.20301,3.56354 3.60878,3.56354 h 6.31577 c 2.40576,0 3.60878,-1.1877 3.60878,-3.56354 v -31.80017 c 2.04478,-1.68424 4.46436,-2.52574 7.26112,-2.52574 2.79659,0 4.917601,0.64634 6.361111,1.93977 1.44349,1.29271 2.16457,3.11199 2.16457,5.45745 v 26.92869 c 0,2.37584 1.20301,3.56354 3.60877,3.56354 h 6.31568 c 2.40586,0 3.60888,-1.1877 3.60888,-3.56354 v -27.87584 c 0,-5.89411 -1.96996,-10.58541 -5.90936,-14.07404 -3.75913,-3.33775 -8.22499,-5.00748 -13.397331,-5.00748 z m 238.574021,0 c -6.82639,0 -12.56992,2.16485 -17.231,6.49523 -5.14234,4.81146 -7.71287,11.21664 -7.71287,19.21595 0,7.72862 2.57053,14.1494 7.71287,19.26154 4.33029,4.30002 10.07381,6.44972 17.231,6.44972 6.8263,0 12.5698,-2.16484 17.23091,-6.49534 0.7519,-0.6615 1.12856,-1.427 1.12856,-2.29888 0,-0.99267 -0.46661,-1.91038 -1.39887,-2.75214 l -4.64482,-4.19475 c -0.84193,-0.78201 -1.60898,-1.17389 -2.30066,-1.17389 -1.0224,0 -1.9404,0.46642 -2.75232,1.39869 -1.68398,1.92455 -4.01359,2.88646 -6.99072,2.88646 -3.33801,0 -5.86445,-0.73613 -7.57855,-2.20973 -0.69169,-0.6315 -1.26359,-1.3238 -1.71462,-2.07542 l 28.82476,-8.66019 c 1.98477,-0.60119 2.97561,-1.81961 2.97561,-3.65409 0,-5.59309 -1.8342,-10.58507 -5.50293,-14.97559 -4.02963,-4.81171 -9.78846,-7.21757 -17.27635,-7.21757 z m 52.8668,0 c -6.8865,0 -12.63003,2.16485 -17.231,6.49523 -5.14225,4.84148 -7.71288,11.24702 -7.71288,19.21595 0,7.75837 2.57063,14.17905 7.71288,19.26154 4.3905,4.30002 10.13404,6.44972 17.231,6.44972 6.82629,0 12.56982,-2.16484 17.2309,-6.49534 0.75191,-0.6615 1.12856,-1.427 1.12856,-2.29888 0,-0.99267 -0.4666,-1.91038 -1.39887,-2.75214 l -4.64648,-4.19475 c -0.84201,-0.78201 -1.60897,-1.17389 -2.30066,-1.17389 -1.02248,0 -1.9387,0.46642 -2.75066,1.39869 -1.68394,1.92455 -4.01534,2.88646 -6.99237,2.88646 -2.91702,0 -5.44188,-0.99266 -7.57689,-2.97696 -2.34563,-2.16554 -3.51978,-5.53369 -3.51978,-10.10445 0,-4.5707 1.21823,-8.01346 3.65411,-10.3292 1.92455,-1.83414 4.40522,-2.75053 7.44256,-2.75053 3.00704,0 5.33853,0.96227 6.99237,2.88653 0.81196,0.93227 1.72818,1.39738 2.75066,1.39738 0.69169,0 1.45865,-0.39022 2.30066,-1.17229 l 4.64648,-4.19476 c 0.93227,-0.84211 1.39887,-1.75986 1.39887,-2.75248 0,-0.87178 -0.37665,-1.639 -1.12856,-2.3006 -4.93174,-4.33038 -10.67527,-6.49523 -17.2309,-6.49523 z m -174.70297,0.90349 c -2.40576,0 -3.60702,1.18777 -3.60702,3.56325 v 5.50307 c 0,2.37574 1.20126,3.56353 3.60702,3.56353 h 6.99248 c 2.31555,0 4.10559,0.60048 5.36865,1.80341 0.84203,0.78163 1.44269,1.7153 1.8035,2.79774 l -8.93208,1.48778 c -5.05201,0.8421 -9.36691,2.73733 -12.94541,5.68426 -3.51847,2.88683 -5.27807,6.79602 -5.27807,11.72824 0,3.87918 1.56454,7.23217 4.69191,10.05859 3.24781,2.88717 7.51861,4.32908 12.81128,4.32908 3.6086,0 6.99028,-1.06693 10.14777,-3.20211 0,1.5337 1.15891,2.30057 3.47446,2.30057 h 6.31399 c 2.40577,0 3.60878,-1.1877 3.60878,-3.56354 v -27.83024 c 0,-5.50329 -1.98351,-9.92525 -5.95301,-13.26299 -3.9093,-3.30811 -8.94705,-4.96064 -15.11177,-4.96064 z m 121.7926,11.27638 c 2.64624,0 4.81135,0.76723 6.49532,2.3006 1.11263,1.05239 1.86443,2.46588 2.25525,4.23989 l -19.93799,5.99853 c 0,-4.17988 1.30821,-7.51773 3.92452,-10.01371 1.7441,-1.6839 4.16545,-2.52531 7.2629,-2.52531 z m -107.2669,15.96788 v 9.38222 c -1.98475,1.83442 -4.37547,2.75251 -7.17214,2.75251 -2.76666,0 -4.72129,-0.66194 -5.86402,-1.98504 -0.84202,-0.96223 -1.26287,-2.12125 -1.26287,-3.47444 0,-1.26304 0.52602,-2.28473 1.57851,-3.06639 1.20293,-0.96225 2.76736,-1.63934 4.69191,-2.03025 z" />
  </g>
</svg>
